<?xml version="1.0" encoding="UTF-8" standalone="no"?><!-- Generator: Gravit.io --><svg xmlns="http://www.w3.org/2000/svg" xmlns:xlink="http://www.w3.org/1999/xlink" style="isolation:isolate" viewBox="0 0 16 16" width="16pt" height="16pt"><defs><clipPath id="_clipPath_smyOBmb16qe5WIU5MPtfMMl9eaefexfY"><rect width="16" height="16"/></clipPath></defs><g clip-path="url(#_clipPath_smyOBmb16qe5WIU5MPtfMMl9eaefexfY)"><path d=" M 14 0 L 2 0 C 0.897 0 0 0.897 0 2 L 0 11 C 0 12.103 0.897 13 2 13 L 5 13 L 5 15.625 C 5 15.847 5.181 16 5.375 16 C 5.45 16 5.528 15.978 5.597 15.925 L 9.5 13 L 14 13 C 15.103 13 16 12.103 16 11 L 16 2 C 16 0.897 15.103 0 14 0 Z  M 15 11 C 15 11.55 14.55 12 14 12 L 9.166 12 L 8.9 12.2 L 6 14.375 L 6 12 L 2 12 C 1.45 12 1 11.55 1 11 L 1 2 C 1 1.45 1.45 1 2 1 L 14 1 C 14.55 1 15 1.45 15 2 L 15 11 Z " fill="rgb(0,0,0)"/></g></svg>